<svg width="300" height="67" viewBox="0 0 300 67" fill="none" xmlns="http://www.w3.org/2000/svg">
<path d="M41.68 33.28C39.84 33.28 38.2133 32.96 36.8 32.32C35.4133 31.68 34.32 30.7867 33.52 29.64C32.72 28.4933 32.2933 27.2133 32.24 25.8H35.2C35.3333 27.16 35.9333 28.36 37 29.4C38.0667 30.4133 39.6267 30.92 41.68 30.92C43.5733 30.92 45.0667 30.44 46.16 29.48C47.28 28.4933 47.84 27.2533 47.84 25.76C47.84 24.56 47.5333 23.6 46.92 22.88C46.3067 22.1333 45.5467 21.5867 44.64 21.24C43.7333 20.8667 42.48 20.4667 40.88 20.04C39.0133 19.5333 37.5333 19.04 36.44 18.56C35.3467 18.08 34.4133 17.3333 33.64 16.32C32.8667 15.3067 32.48 13.9333 32.48 12.2C32.48 10.76 32.8533 9.48 33.6 8.36C34.3467 7.21333 35.4 6.32 36.76 5.68C38.12 5.04 39.68 4.72 41.44 4.72C44.0267 4.72 46.1067 5.36 47.68 6.64C49.28 7.89333 50.2 9.52 50.44 11.52H47.4C47.2133 10.3733 46.5867 9.36 45.52 8.48C44.4533 7.57333 43.0133 7.12 41.2 7.12C39.52 7.12 38.12 7.57333 37 8.48C35.88 9.36 35.32 10.5733 35.32 12.12C35.32 13.2933 35.6267 14.24 36.24 14.96C36.8533 15.68 37.6133 16.2267 38.52 16.6C39.4533 16.9733 40.7067 17.3733 42.28 17.8C44.0933 18.3067 45.56 18.8133 46.68 19.32C47.8 19.8 48.7467 20.5467 49.52 21.56C50.2933 22.5733 50.68 23.9333 50.68 25.64C50.68 26.9467 50.3333 28.1867 49.64 29.36C48.9467 30.5333 47.92 31.48 46.56 32.2C45.2 32.92 43.5733 33.28 41.68 33.28ZM54.8106 22.04C54.8106 19.8 55.2506 17.84 56.1306 16.16C57.0373 14.4533 58.2773 13.1467 59.8506 12.24C61.4506 11.3067 63.2506 10.84 65.2506 10.84C67.3306 10.84 69.1173 11.32 70.6106 12.28C72.1306 13.24 73.224 14.4667 73.8906 15.96V11.16H76.6906V33H73.8906V28.16C73.1973 29.6533 72.0906 30.8933 70.5706 31.88C69.0773 32.84 67.2906 33.32 65.2106 33.32C63.2373 33.32 61.4506 32.8533 59.8506 31.92C58.2773 30.9867 57.0373 29.6667 56.1306 27.96C55.2506 26.2533 54.8106 24.28 54.8106 22.04ZM73.8906 22.08C73.8906 20.32 73.5306 18.7733 72.8106 17.44C72.0906 16.1067 71.104 15.08 69.8506 14.36C68.624 13.64 67.264 13.28 65.7706 13.28C64.224 13.28 62.8373 13.6267 61.6106 14.32C60.384 15.0133 59.4106 16.0267 58.6906 17.36C57.9973 18.6667 57.6506 20.2267 57.6506 22.04C57.6506 23.8267 57.9973 25.4 58.6906 26.76C59.4106 28.0933 60.384 29.12 61.6106 29.84C62.8373 30.5333 64.224 30.88 65.7706 30.88C67.264 30.88 68.624 30.52 69.8506 29.8C71.104 29.08 72.0906 28.0533 72.8106 26.72C73.5306 25.3867 73.8906 23.84 73.8906 22.08ZM84.6828 7.04C84.1228 7.04 83.6428 6.84 83.2428 6.44C82.8428 6.04 82.6428 5.54667 82.6428 4.96C82.6428 4.37333 82.8428 3.89333 83.2428 3.52C83.6428 3.12 84.1228 2.92 84.6828 2.92C85.2428 2.92 85.7095 3.12 86.0828 3.52C86.4828 3.89333 86.6828 4.37333 86.6828 4.96C86.6828 5.54667 86.4828 6.04 86.0828 6.44C85.7095 6.84 85.2428 7.04 84.6828 7.04ZM86.0428 38.16C86.0428 39.92 85.6028 41.2133 84.7228 42.04C83.8428 42.8933 82.5228 43.32 80.7628 43.32H78.8028V40.92H80.3228C81.3628 40.92 82.1095 40.6933 82.5628 40.24C83.0161 39.8133 83.2428 39.08 83.2428 38.04V11.16H86.0428V38.16ZM93.8578 7.04C93.2978 7.04 92.8178 6.84 92.4178 6.44C92.0178 6.04 91.8178 5.54667 91.8178 4.96C91.8178 4.37333 92.0178 3.89333 92.4178 3.52C92.8178 3.12 93.2978 2.92 93.8578 2.92C94.4178 2.92 94.8978 3.12 95.2978 3.52C95.6978 3.89333 95.8978 4.37333 95.8978 4.96C95.8978 5.54667 95.6978 6.04 95.2978 6.44C94.8978 6.84 94.4178 7.04 93.8578 7.04ZM95.2578 11.16V33H92.4578V11.16H95.2578ZM104.398 3.4V33H101.598V3.4H104.398ZM120.299 33.32C118.246 33.32 116.392 32.8667 114.739 31.96C113.112 31.0267 111.819 29.72 110.859 28.04C109.926 26.3333 109.459 24.3467 109.459 22.08C109.459 19.8133 109.939 17.84 110.899 16.16C111.859 14.4533 113.166 13.1467 114.819 12.24C116.472 11.3067 118.326 10.84 120.379 10.84C122.432 10.84 124.286 11.3067 125.939 12.24C127.619 13.1467 128.926 14.4533 129.859 16.16C130.819 17.84 131.299 19.8133 131.299 22.08C131.299 24.32 130.819 26.2933 129.859 28C128.899 29.7067 127.579 31.0267 125.899 31.96C124.219 32.8667 122.352 33.32 120.299 33.32ZM120.299 30.88C121.739 30.88 123.072 30.56 124.299 29.92C125.526 29.2533 126.512 28.2667 127.259 26.96C128.032 25.6267 128.419 24 128.419 22.08C128.419 20.16 128.046 18.5467 127.299 17.24C126.552 15.9067 125.566 14.92 124.339 14.28C123.112 13.6133 121.779 13.28 120.339 13.28C118.899 13.28 117.566 13.6133 116.339 14.28C115.112 14.92 114.126 15.9067 113.379 17.24C112.659 18.5467 112.299 20.16 112.299 22.08C112.299 24 112.659 25.6267 113.379 26.96C114.126 28.2667 115.099 29.2533 116.299 29.92C117.526 30.56 118.859 30.88 120.299 30.88ZM150.18 7.32V17.76H160.78V20.08H150.18V30.68H161.98V33H147.38V5H161.98V7.32H150.18ZM175.257 30.28L182.617 11.16H185.577L176.817 33H173.657L164.897 11.16H167.897L175.257 30.28ZM209.132 20.96C209.132 21.92 209.105 22.6533 209.052 23.16H190.932C191.012 24.8133 191.412 26.2267 192.132 27.4C192.852 28.5733 193.799 29.4667 194.972 30.08C196.145 30.6667 197.425 30.96 198.812 30.96C200.625 30.96 202.145 30.52 203.372 29.64C204.625 28.76 205.452 27.5733 205.852 26.08H208.812C208.279 28.2133 207.132 29.96 205.372 31.32C203.639 32.6533 201.452 33.32 198.812 33.32C196.759 33.32 194.919 32.8667 193.292 31.96C191.665 31.0267 190.385 29.72 189.452 28.04C188.545 26.3333 188.092 24.3467 188.092 22.08C188.092 19.8133 188.545 17.8267 189.452 16.12C190.359 14.4133 191.625 13.1067 193.252 12.2C194.879 11.2933 196.732 10.84 198.812 10.84C200.892 10.84 202.705 11.2933 204.252 12.2C205.825 13.1067 207.025 14.3333 207.852 15.88C208.705 17.4 209.132 19.0933 209.132 20.96ZM206.292 20.88C206.319 19.2533 205.985 17.8667 205.292 16.72C204.625 15.5733 203.705 14.7067 202.532 14.12C201.359 13.5333 200.079 13.24 198.692 13.24C196.612 13.24 194.839 13.9067 193.372 15.24C191.905 16.5733 191.092 18.4533 190.932 20.88H206.292ZM224.495 10.76C227.108 10.76 229.241 11.5733 230.895 13.2C232.548 14.8 233.375 17.1333 233.375 20.2V33H230.615V20.52C230.615 18.1467 230.015 16.3333 228.815 15.08C227.641 13.8267 226.028 13.2 223.975 13.2C221.868 13.2 220.188 13.8667 218.935 15.2C217.681 16.5333 217.055 18.4933 217.055 21.08V33H214.255V11.16H217.055V14.88C217.748 13.5467 218.748 12.5333 220.055 11.84C221.361 11.12 222.841 10.76 224.495 10.76ZM243.207 13.52V27.08C243.207 28.4133 243.461 29.3333 243.967 29.84C244.474 30.3467 245.367 30.6 246.647 30.6H249.207V33H246.207C244.234 33 242.767 32.5467 241.807 31.64C240.847 30.7067 240.367 29.1867 240.367 27.08V13.52H237.327V11.16H240.367V5.68H243.207V11.16H249.207V13.52H243.207ZM261.345 33.32C258.838 33.32 256.785 32.7467 255.185 31.6C253.612 30.4267 252.732 28.84 252.545 26.84H255.425C255.558 28.0667 256.132 29.0667 257.145 29.84C258.185 30.5867 259.572 30.96 261.305 30.96C262.825 30.96 264.012 30.6 264.865 29.88C265.745 29.16 266.185 28.2667 266.185 27.2C266.185 26.4533 265.945 25.84 265.465 25.36C264.985 24.88 264.372 24.5067 263.625 24.24C262.905 23.9467 261.918 23.64 260.665 23.32C259.038 22.8933 257.718 22.4667 256.705 22.04C255.692 21.6133 254.825 20.9867 254.105 20.16C253.412 19.3067 253.065 18.1733 253.065 16.76C253.065 15.6933 253.385 14.7067 254.025 13.8C254.665 12.8933 255.572 12.1733 256.745 11.64C257.918 11.1067 259.252 10.84 260.745 10.84C263.092 10.84 264.985 11.44 266.425 12.64C267.865 13.8133 268.638 15.44 268.745 17.52H265.945C265.865 16.24 265.358 15.2133 264.425 14.44C263.518 13.64 262.265 13.24 260.665 13.24C259.252 13.24 258.105 13.5733 257.225 14.24C256.345 14.9067 255.905 15.7333 255.905 16.72C255.905 17.5733 256.158 18.28 256.665 18.84C257.198 19.3733 257.852 19.8 258.625 20.12C259.398 20.4133 260.438 20.7467 261.745 21.12C263.318 21.5467 264.572 21.96 265.505 22.36C266.438 22.76 267.238 23.3467 267.905 24.12C268.572 24.8933 268.918 25.92 268.945 27.2C268.945 28.3733 268.625 29.4267 267.985 30.36C267.345 31.2667 266.452 31.9867 265.305 32.52C264.158 33.0533 262.838 33.32 261.345 33.32Z" fill="#00BE9C"/>
<path d="M16.768 58.112C16.032 58.112 15.3707 57.984 14.784 57.728C14.208 57.4613 13.7547 57.0987 13.424 56.64C13.0933 56.1707 12.9227 55.632 12.912 55.024H14.464C14.5173 55.5467 14.7307 55.9893 15.104 56.352C15.488 56.704 16.0427 56.88 16.768 56.88C17.4613 56.88 18.0053 56.7093 18.4 56.368C18.8053 56.016 19.008 55.568 19.008 55.024C19.008 54.5973 18.8907 54.2507 18.656 53.984C18.4213 53.7173 18.128 53.5147 17.776 53.376C17.424 53.2373 16.9493 53.088 16.352 52.928C15.616 52.736 15.024 52.544 14.576 52.352C14.1387 52.16 13.76 51.8613 13.44 51.456C13.1307 51.04 12.976 50.4853 12.976 49.792C12.976 49.184 13.1307 48.6453 13.44 48.176C13.7493 47.7067 14.1813 47.344 14.736 47.088C15.3013 46.832 15.9467 46.704 16.672 46.704C17.7173 46.704 18.5707 46.9653 19.232 47.488C19.904 48.0107 20.2827 48.704 20.368 49.568H18.768C18.7147 49.1413 18.4907 48.768 18.096 48.448C17.7013 48.1173 17.1787 47.952 16.528 47.952C15.92 47.952 15.424 48.112 15.04 48.432C14.656 48.7413 14.464 49.1787 14.464 49.744C14.464 50.1493 14.576 50.48 14.8 50.736C15.0347 50.992 15.3173 51.1893 15.648 51.328C15.9893 51.456 16.464 51.6053 17.072 51.776C17.808 51.9787 18.4 52.1813 18.848 52.384C19.296 52.576 19.68 52.88 20 53.296C20.32 53.7013 20.48 54.256 20.48 54.96C20.48 55.504 20.336 56.016 20.048 56.496C19.76 56.976 19.3333 57.3653 18.768 57.664C18.2027 57.9627 17.536 58.112 16.768 58.112ZM24.3986 50.432V55.6C24.3986 56.0267 24.4893 56.3307 24.6706 56.512C24.852 56.6827 25.1666 56.768 25.6146 56.768H26.6866V58H25.3746C24.564 58 23.956 57.8133 23.5506 57.44C23.1453 57.0667 22.9426 56.4533 22.9426 55.6V50.432H21.8066V49.232H22.9426V47.024H24.3986V49.232H26.6866V50.432H24.3986ZM27.9068 53.584C27.9068 52.688 28.0881 51.904 28.4508 51.232C28.8134 50.5493 29.3094 50.0213 29.9388 49.648C30.5788 49.2747 31.2881 49.088 32.0668 49.088C32.8348 49.088 33.5014 49.2533 34.0668 49.584C34.6321 49.9147 35.0534 50.3307 35.3308 50.832V49.232H36.8028V58H35.3308V56.368C35.0428 56.88 34.6108 57.3067 34.0348 57.648C33.4694 57.9787 32.8081 58.144 32.0508 58.144C31.2721 58.144 30.5681 57.952 29.9388 57.568C29.3094 57.184 28.8134 56.6453 28.4508 55.952C28.0881 55.2587 27.9068 54.4693 27.9068 53.584ZM35.3308 53.6C35.3308 52.9387 35.1974 52.3627 34.9308 51.872C34.6641 51.3813 34.3014 51.008 33.8428 50.752C33.3948 50.4853 32.8988 50.352 32.3548 50.352C31.8108 50.352 31.3148 50.48 30.8668 50.736C30.4188 50.992 30.0614 51.3653 29.7948 51.856C29.5281 52.3467 29.3948 52.9227 29.3948 53.584C29.3948 54.256 29.5281 54.8427 29.7948 55.344C30.0614 55.8347 30.4188 56.2133 30.8668 56.48C31.3148 56.736 31.8108 56.864 32.3548 56.864C32.8988 56.864 33.3948 56.736 33.8428 56.48C34.3014 56.2133 34.6641 55.8347 34.9308 55.344C35.1974 54.8427 35.3308 54.2613 35.3308 53.6ZM42.8313 50.432H40.9913V58H39.5353V50.432H38.3993V49.232H39.5353V48.608C39.5353 47.6267 39.7859 46.912 40.2873 46.464C40.7993 46.0053 41.6153 45.776 42.7352 45.776V46.992C42.0953 46.992 41.6419 47.12 41.3753 47.376C41.1193 47.6213 40.9913 48.032 40.9913 48.608V49.232H42.8313V50.432ZM48.0969 50.432H46.2569V58H44.8009V50.432H43.6649V49.232H44.8009V48.608C44.8009 47.6267 45.0515 46.912 45.5529 46.464C46.0649 46.0053 46.8809 45.776 48.0009 45.776V46.992C47.3609 46.992 46.9075 47.12 46.6409 47.376C46.3849 47.6213 46.2569 48.032 46.2569 48.608V49.232H48.0969V50.432ZM62.6201 58L61.1641 56.528C60.6201 57.0933 60.0388 57.5147 59.4201 57.792C58.8015 58.0587 58.1028 58.192 57.3241 58.192C56.5561 58.192 55.8735 58.0533 55.2761 57.776C54.6895 57.4987 54.2308 57.104 53.9001 56.592C53.5801 56.08 53.4201 55.4827 53.4201 54.8C53.4201 54.0213 53.6388 53.3387 54.0761 52.752C54.5241 52.1547 55.1801 51.6853 56.0441 51.344C55.7028 50.9387 55.4575 50.5653 55.3081 50.224C55.1588 49.8827 55.0841 49.5093 55.0841 49.104C55.0841 48.6347 55.2015 48.2133 55.4361 47.84C55.6815 47.456 56.0281 47.1573 56.4761 46.944C56.9241 46.7307 57.4415 46.624 58.0281 46.624C58.6041 46.624 59.1055 46.736 59.5321 46.96C59.9588 47.184 60.2788 47.4987 60.4921 47.904C60.7055 48.2987 60.8015 48.7413 60.7801 49.232H59.3241C59.3348 48.7947 59.2121 48.4533 58.9561 48.208C58.7001 47.952 58.3695 47.824 57.9641 47.824C57.5375 47.824 57.1908 47.9467 56.9241 48.192C56.6681 48.4267 56.5401 48.7307 56.5401 49.104C56.5401 49.424 56.6255 49.7333 56.7961 50.032C56.9775 50.3307 57.2761 50.6987 57.6921 51.136L61.0201 54.48L61.3081 54.032L62.3961 52.208H63.9641L62.6521 54.48C62.4708 54.8 62.2575 55.136 62.0121 55.488L64.5241 58H62.6201ZM57.3241 56.944C57.9001 56.944 58.4175 56.832 58.8761 56.608C59.3455 56.384 59.7881 56.0373 60.2041 55.568L56.9241 52.272C55.5588 52.7947 54.8761 53.6213 54.8761 54.752C54.8761 55.3813 55.1001 55.904 55.5481 56.32C56.0068 56.736 56.5988 56.944 57.3241 56.944ZM71.6099 48.032V51.76H75.6739V52.96H71.6099V56.8H76.1539V58H70.1539V46.832H76.1539V48.032H71.6099ZM81.621 56.656L84.341 49.232H85.893L82.453 58H80.757L77.317 49.232H78.885L81.621 56.656ZM95.3258 53.28C95.3258 53.5573 95.3098 53.8507 95.2778 54.16H88.2698C88.3231 55.024 88.6164 55.7013 89.1498 56.192C89.6938 56.672 90.3498 56.912 91.1178 56.912C91.7471 56.912 92.2698 56.768 92.6858 56.48C93.1124 56.1813 93.4111 55.7867 93.5818 55.296H95.1498C94.9151 56.1387 94.4458 56.8267 93.7418 57.36C93.0378 57.8827 92.1631 58.144 91.1178 58.144C90.2858 58.144 89.5391 57.9573 88.8778 57.584C88.2271 57.2107 87.7151 56.6827 87.3418 56C86.9684 55.3067 86.7818 54.5067 86.7818 53.6C86.7818 52.6933 86.9631 51.8987 87.3258 51.216C87.6884 50.5333 88.1951 50.0107 88.8458 49.648C89.5071 49.2747 90.2644 49.088 91.1178 49.088C91.9498 49.088 92.6858 49.2693 93.3258 49.632C93.9658 49.9947 94.4564 50.496 94.7978 51.136C95.1498 51.7653 95.3258 52.48 95.3258 53.28ZM93.8218 52.976C93.8218 52.4213 93.6991 51.9467 93.4538 51.552C93.2084 51.1467 92.8724 50.8427 92.4458 50.64C92.0298 50.4267 91.5658 50.32 91.0538 50.32C90.3178 50.32 89.6884 50.5547 89.1658 51.024C88.6538 51.4933 88.3604 52.144 88.2858 52.976H93.8218ZM101.52 49.072C102.586 49.072 103.45 49.3973 104.112 50.048C104.773 50.688 105.104 51.616 105.104 52.832V58H103.664V53.04C103.664 52.1653 103.445 51.4987 103.008 51.04C102.57 50.5707 101.973 50.336 101.216 50.336C100.448 50.336 99.8343 50.576 99.3756 51.056C98.9276 51.536 98.7036 52.2347 98.7036 53.152V58H97.2476V49.232H98.7036V50.48C98.9916 50.032 99.381 49.6853 99.8716 49.44C100.373 49.1947 100.922 49.072 101.52 49.072ZM109.258 50.432V55.6C109.258 56.0267 109.349 56.3307 109.53 56.512C109.711 56.6827 110.026 56.768 110.474 56.768H111.546V58H110.234C109.423 58 108.815 57.8133 108.41 57.44C108.005 57.0667 107.802 56.4533 107.802 55.6V50.432H106.666V49.232H107.802V47.024H109.258V49.232H111.546V50.432H109.258ZM128.888 46.928V58H127.432V49.744L123.752 58H122.728L119.032 49.728V58H117.576V46.928H119.144L123.24 56.08L127.336 46.928H128.888ZM130.813 53.584C130.813 52.688 130.994 51.904 131.357 51.232C131.72 50.5493 132.216 50.0213 132.845 49.648C133.485 49.2747 134.194 49.088 134.973 49.088C135.741 49.088 136.408 49.2533 136.973 49.584C137.538 49.9147 137.96 50.3307 138.237 50.832V49.232H139.709V58H138.237V56.368C137.949 56.88 137.517 57.3067 136.941 57.648C136.376 57.9787 135.714 58.144 134.957 58.144C134.178 58.144 133.474 57.952 132.845 57.568C132.216 57.184 131.72 56.6453 131.357 55.952C130.994 55.2587 130.813 54.4693 130.813 53.584ZM138.237 53.6C138.237 52.9387 138.104 52.3627 137.837 51.872C137.57 51.3813 137.208 51.008 136.749 50.752C136.301 50.4853 135.805 50.352 135.261 50.352C134.717 50.352 134.221 50.48 133.773 50.736C133.325 50.992 132.968 51.3653 132.701 51.856C132.434 52.3467 132.301 52.9227 132.301 53.584C132.301 54.256 132.434 54.8427 132.701 55.344C132.968 55.8347 133.325 56.2133 133.773 56.48C134.221 56.736 134.717 56.864 135.261 56.864C135.805 56.864 136.301 56.736 136.749 56.48C137.208 56.2133 137.57 55.8347 137.837 55.344C138.104 54.8427 138.237 54.2613 138.237 53.6ZM146.442 49.072C147.508 49.072 148.372 49.3973 149.034 50.048C149.695 50.688 150.026 51.616 150.026 52.832V58H148.586V53.04C148.586 52.1653 148.367 51.4987 147.93 51.04C147.492 50.5707 146.895 50.336 146.138 50.336C145.37 50.336 144.756 50.576 144.298 51.056C143.85 51.536 143.626 52.2347 143.626 53.152V58H142.17V49.232H143.626V50.48C143.914 50.032 144.303 49.6853 144.794 49.44C145.295 49.1947 145.844 49.072 146.442 49.072ZM151.86 53.584C151.86 52.688 152.041 51.904 152.404 51.232C152.767 50.5493 153.263 50.0213 153.892 49.648C154.532 49.2747 155.241 49.088 156.02 49.088C156.788 49.088 157.455 49.2533 158.02 49.584C158.585 49.9147 159.007 50.3307 159.284 50.832V49.232H160.756V58H159.284V56.368C158.996 56.88 158.564 57.3067 157.988 57.648C157.423 57.9787 156.761 58.144 156.004 58.144C155.225 58.144 154.521 57.952 153.892 57.568C153.263 57.184 152.767 56.6453 152.404 55.952C152.041 55.2587 151.86 54.4693 151.86 53.584ZM159.284 53.6C159.284 52.9387 159.151 52.3627 158.884 51.872C158.617 51.3813 158.255 51.008 157.796 50.752C157.348 50.4853 156.852 50.352 156.308 50.352C155.764 50.352 155.268 50.48 154.82 50.736C154.372 50.992 154.015 51.3653 153.748 51.856C153.481 52.3467 153.348 52.9227 153.348 53.584C153.348 54.256 153.481 54.8427 153.748 55.344C154.015 55.8347 154.372 56.2133 154.82 56.48C155.268 56.736 155.764 56.864 156.308 56.864C156.852 56.864 157.348 56.736 157.796 56.48C158.255 56.2133 158.617 55.8347 158.884 55.344C159.151 54.8427 159.284 54.2613 159.284 53.6ZM166.832 49.088C167.59 49.088 168.251 49.2533 168.816 49.584C169.392 49.9147 169.819 50.3307 170.096 50.832V49.232H171.568V58.192C171.568 58.992 171.398 59.7013 171.056 60.32C170.715 60.9493 170.224 61.44 169.584 61.792C168.955 62.144 168.219 62.32 167.376 62.32C166.224 62.32 165.264 62.048 164.496 61.504C163.728 60.96 163.275 60.2187 163.136 59.28H164.576C164.736 59.8133 165.067 60.24 165.568 60.56C166.07 60.8907 166.672 61.056 167.376 61.056C168.176 61.056 168.827 60.8053 169.328 60.304C169.84 59.8027 170.096 59.0987 170.096 58.192V56.352C169.808 56.864 169.382 57.2907 168.816 57.632C168.251 57.9733 167.59 58.144 166.832 58.144C166.054 58.144 165.344 57.952 164.704 57.568C164.075 57.184 163.579 56.6453 163.216 55.952C162.854 55.2587 162.672 54.4693 162.672 53.584C162.672 52.688 162.854 51.904 163.216 51.232C163.579 50.5493 164.075 50.0213 164.704 49.648C165.344 49.2747 166.054 49.088 166.832 49.088ZM170.096 53.6C170.096 52.9387 169.963 52.3627 169.696 51.872C169.43 51.3813 169.067 51.008 168.608 50.752C168.16 50.4853 167.664 50.352 167.12 50.352C166.576 50.352 166.08 50.48 165.632 50.736C165.184 50.992 164.827 51.3653 164.56 51.856C164.294 52.3467 164.16 52.9227 164.16 53.584C164.16 54.256 164.294 54.8427 164.56 55.344C164.827 55.8347 165.184 56.2133 165.632 56.48C166.08 56.736 166.576 56.864 167.12 56.864C167.664 56.864 168.16 56.736 168.608 56.48C169.067 56.2133 169.43 55.8347 169.696 55.344C169.963 54.8427 170.096 54.2613 170.096 53.6ZM182.029 53.28C182.029 53.5573 182.013 53.8507 181.981 54.16H174.973C175.026 55.024 175.32 55.7013 175.853 56.192C176.397 56.672 177.053 56.912 177.821 56.912C178.45 56.912 178.973 56.768 179.389 56.48C179.816 56.1813 180.114 55.7867 180.285 55.296H181.853C181.618 56.1387 181.149 56.8267 180.445 57.36C179.741 57.8827 178.866 58.144 177.821 58.144C176.989 58.144 176.242 57.9573 175.581 57.584C174.93 57.2107 174.418 56.6827 174.045 56C173.672 55.3067 173.485 54.5067 173.485 53.6C173.485 52.6933 173.666 51.8987 174.029 51.216C174.392 50.5333 174.898 50.0107 175.549 49.648C176.21 49.2747 176.968 49.088 177.821 49.088C178.653 49.088 179.389 49.2693 180.029 49.632C180.669 49.9947 181.16 50.496 181.501 51.136C181.853 51.7653 182.029 52.48 182.029 53.28ZM180.525 52.976C180.525 52.4213 180.402 51.9467 180.157 51.552C179.912 51.1467 179.576 50.8427 179.149 50.64C178.733 50.4267 178.269 50.32 177.757 50.32C177.021 50.32 176.392 50.5547 175.869 51.024C175.357 51.4933 175.064 52.144 174.989 52.976H180.525ZM194.495 49.072C195.177 49.072 195.785 49.216 196.319 49.504C196.852 49.7813 197.273 50.2027 197.583 50.768C197.892 51.3333 198.047 52.0213 198.047 52.832V58H196.607V53.04C196.607 52.1653 196.388 51.4987 195.951 51.04C195.524 50.5707 194.943 50.336 194.207 50.336C193.449 50.336 192.847 50.5813 192.399 51.072C191.951 51.552 191.727 52.2507 191.727 53.168V58H190.287V53.04C190.287 52.1653 190.068 51.4987 189.631 51.04C189.204 50.5707 188.623 50.336 187.887 50.336C187.129 50.336 186.527 50.5813 186.079 51.072C185.631 51.552 185.407 52.2507 185.407 53.168V58H183.951V49.232H185.407V50.496C185.695 50.0373 186.079 49.6853 186.559 49.44C187.049 49.1947 187.588 49.072 188.175 49.072C188.911 49.072 189.561 49.2373 190.127 49.568C190.692 49.8987 191.113 50.384 191.391 51.024C191.636 50.4053 192.041 49.9253 192.607 49.584C193.172 49.2427 193.801 49.072 194.495 49.072ZM208.435 53.28C208.435 53.5573 208.419 53.8507 208.387 54.16H201.379C201.432 55.024 201.726 55.7013 202.259 56.192C202.803 56.672 203.459 56.912 204.227 56.912C204.856 56.912 205.379 56.768 205.795 56.48C206.222 56.1813 206.52 55.7867 206.691 55.296H208.259C208.024 56.1387 207.555 56.8267 206.851 57.36C206.147 57.8827 205.272 58.144 204.227 58.144C203.395 58.144 202.648 57.9573 201.987 57.584C201.336 57.2107 200.824 56.6827 200.451 56C200.078 55.3067 199.891 54.5067 199.891 53.6C199.891 52.6933 200.072 51.8987 200.435 51.216C200.798 50.5333 201.304 50.0107 201.955 49.648C202.616 49.2747 203.374 49.088 204.227 49.088C205.059 49.088 205.795 49.2693 206.435 49.632C207.075 49.9947 207.566 50.496 207.907 51.136C208.259 51.7653 208.435 52.48 208.435 53.28ZM206.931 52.976C206.931 52.4213 206.808 51.9467 206.563 51.552C206.318 51.1467 205.982 50.8427 205.555 50.64C205.139 50.4267 204.675 50.32 204.163 50.32C203.427 50.32 202.798 50.5547 202.275 51.024C201.763 51.4933 201.47 52.144 201.395 52.976H206.931ZM214.629 49.072C215.696 49.072 216.56 49.3973 217.221 50.048C217.882 50.688 218.213 51.616 218.213 52.832V58H216.773V53.04C216.773 52.1653 216.554 51.4987 216.117 51.04C215.68 50.5707 215.082 50.336 214.325 50.336C213.557 50.336 212.944 50.576 212.485 51.056C212.037 51.536 211.813 52.2347 211.813 53.152V58H210.357V49.232H211.813V50.48C212.101 50.032 212.49 49.6853 212.981 49.44C213.482 49.1947 214.032 49.072 214.629 49.072ZM222.367 50.432V55.6C222.367 56.0267 222.458 56.3307 222.639 56.512C222.821 56.6827 223.135 56.768 223.583 56.768H224.655V58H223.343C222.533 58 221.925 57.8133 221.519 57.44C221.114 57.0667 220.911 56.4533 220.911 55.6V50.432H219.775V49.232H220.911V47.024H222.367V49.232H224.655V50.432H222.367ZM234.221 58.112C233.485 58.112 232.824 57.984 232.237 57.728C231.661 57.4613 231.208 57.0987 230.877 56.64C230.546 56.1707 230.376 55.632 230.365 55.024H231.917C231.97 55.5467 232.184 55.9893 232.557 56.352C232.941 56.704 233.496 56.88 234.221 56.88C234.914 56.88 235.458 56.7093 235.853 56.368C236.258 56.016 236.461 55.568 236.461 55.024C236.461 54.5973 236.344 54.2507 236.109 53.984C235.874 53.7173 235.581 53.5147 235.229 53.376C234.877 53.2373 234.402 53.088 233.805 52.928C233.069 52.736 232.477 52.544 232.029 52.352C231.592 52.16 231.213 51.8613 230.893 51.456C230.584 51.04 230.429 50.4853 230.429 49.792C230.429 49.184 230.584 48.6453 230.893 48.176C231.202 47.7067 231.634 47.344 232.189 47.088C232.754 46.832 233.4 46.704 234.125 46.704C235.17 46.704 236.024 46.9653 236.685 47.488C237.357 48.0107 237.736 48.704 237.821 49.568H236.221C236.168 49.1413 235.944 48.768 235.549 48.448C235.154 48.1173 234.632 47.952 233.981 47.952C233.373 47.952 232.877 48.112 232.493 48.432C232.109 48.7413 231.917 49.1787 231.917 49.744C231.917 50.1493 232.029 50.48 232.253 50.736C232.488 50.992 232.77 51.1893 233.101 51.328C233.442 51.456 233.917 51.6053 234.525 51.776C235.261 51.9787 235.853 52.1813 236.301 52.384C236.749 52.576 237.133 52.88 237.453 53.296C237.773 53.7013 237.933 54.256 237.933 54.96C237.933 55.504 237.789 56.016 237.501 56.496C237.213 56.976 236.786 57.3653 236.221 57.664C235.656 57.9627 234.989 58.112 234.221 58.112ZM247.628 49.232L242.348 62.128H240.844L242.572 57.904L239.036 49.232H240.652L243.404 56.336L246.124 49.232H247.628ZM252.195 58.144C251.523 58.144 250.921 58.032 250.387 57.808C249.854 57.5733 249.433 57.2533 249.123 56.848C248.814 56.432 248.643 55.9573 248.611 55.424H250.115C250.158 55.8613 250.361 56.2187 250.723 56.496C251.097 56.7733 251.582 56.912 252.179 56.912C252.734 56.912 253.171 56.7893 253.491 56.544C253.811 56.2987 253.971 55.9893 253.971 55.616C253.971 55.232 253.801 54.9493 253.459 54.768C253.118 54.576 252.59 54.3893 251.875 54.208C251.225 54.0373 250.691 53.8667 250.275 53.696C249.87 53.5147 249.518 53.2533 249.219 52.912C248.931 52.56 248.787 52.1013 248.787 51.536C248.787 51.088 248.921 50.6773 249.187 50.304C249.454 49.9307 249.833 49.6373 250.323 49.424C250.814 49.2 251.374 49.088 252.003 49.088C252.974 49.088 253.758 49.3333 254.355 49.824C254.953 50.3147 255.273 50.9867 255.315 51.84H253.859C253.827 51.3813 253.641 51.0133 253.299 50.736C252.969 50.4587 252.521 50.32 251.955 50.32C251.433 50.32 251.017 50.432 250.707 50.656C250.398 50.88 250.243 51.1733 250.243 51.536C250.243 51.824 250.334 52.064 250.515 52.256C250.707 52.4373 250.942 52.5867 251.219 52.704C251.507 52.8107 251.902 52.9333 252.403 53.072C253.033 53.2427 253.545 53.4133 253.939 53.584C254.334 53.744 254.67 53.9893 254.947 54.32C255.235 54.6507 255.385 55.0827 255.395 55.616C255.395 56.096 255.262 56.528 254.995 56.912C254.729 57.296 254.35 57.6 253.859 57.824C253.379 58.0373 252.825 58.144 252.195 58.144ZM259.227 50.432V55.6C259.227 56.0267 259.317 56.3307 259.499 56.512C259.68 56.6827 259.995 56.768 260.443 56.768H261.515V58H260.203C259.392 58 258.784 57.8133 258.379 57.44C257.973 57.0667 257.771 56.4533 257.771 55.6V50.432H256.635V49.232H257.771V47.024H259.227V49.232H261.515V50.432H259.227ZM271.279 53.28C271.279 53.5573 271.263 53.8507 271.231 54.16H264.223C264.276 55.024 264.57 55.7013 265.103 56.192C265.647 56.672 266.303 56.912 267.071 56.912C267.7 56.912 268.223 56.768 268.639 56.48C269.066 56.1813 269.364 55.7867 269.535 55.296H271.103C270.868 56.1387 270.399 56.8267 269.695 57.36C268.991 57.8827 268.116 58.144 267.071 58.144C266.239 58.144 265.492 57.9573 264.831 57.584C264.18 57.2107 263.668 56.6827 263.295 56C262.922 55.3067 262.735 54.5067 262.735 53.6C262.735 52.6933 262.916 51.8987 263.279 51.216C263.642 50.5333 264.148 50.0107 264.799 49.648C265.46 49.2747 266.218 49.088 267.071 49.088C267.903 49.088 268.639 49.2693 269.279 49.632C269.919 49.9947 270.41 50.496 270.751 51.136C271.103 51.7653 271.279 52.48 271.279 53.28ZM269.775 52.976C269.775 52.4213 269.652 51.9467 269.407 51.552C269.162 51.1467 268.826 50.8427 268.399 50.64C267.983 50.4267 267.519 50.32 267.007 50.32C266.271 50.32 265.642 50.5547 265.119 51.024C264.607 51.4933 264.314 52.144 264.239 52.976H269.775ZM283.745 49.072C284.427 49.072 285.035 49.216 285.569 49.504C286.102 49.7813 286.523 50.2027 286.833 50.768C287.142 51.3333 287.297 52.0213 287.297 52.832V58H285.857V53.04C285.857 52.1653 285.638 51.4987 285.201 51.04C284.774 50.5707 284.193 50.336 283.457 50.336C282.699 50.336 282.097 50.5813 281.649 51.072C281.201 51.552 280.977 52.2507 280.977 53.168V58H279.537V53.04C279.537 52.1653 279.318 51.4987 278.881 51.04C278.454 50.5707 277.873 50.336 277.137 50.336C276.379 50.336 275.777 50.5813 275.329 51.072C274.881 51.552 274.657 52.2507 274.657 53.168V58H273.201V49.232H274.657V50.496C274.945 50.0373 275.329 49.6853 275.809 49.44C276.299 49.1947 276.838 49.072 277.425 49.072C278.161 49.072 278.811 49.2373 279.377 49.568C279.942 49.8987 280.363 50.384 280.641 51.024C280.886 50.4053 281.291 49.9253 281.857 49.584C282.422 49.2427 283.051 49.072 283.745 49.072Z" fill="#00BE9C"/>
</svg>
